<svg width="89" height="54" viewBox="0 0 89 54" fill="none" xmlns="http://www.w3.org/2000/svg">
<path d="M48.6094 9.92166H58.1584V7.94652C58.1584 7.45748 57.7565 7.05865 57.2638 7.05865H50.0686C49.8485 8.16492 49.3031 9.1525 48.5329 9.92166H48.6094Z" fill="#2D413D"/>
<path d="M38.893 7.05865H31.7361C31.2434 7.05865 30.8415 7.45748 30.8415 7.94652V9.92166H40.467C39.6968 9.1525 39.1514 8.16492 38.9313 7.05865H38.893Z" fill="#2D413D"/>
<path d="M30.8415 11.593V21.7346C30.8415 22.2236 31.2434 22.6224 31.7361 22.6224H57.259C57.7518 22.6224 58.1536 22.2236 58.1536 21.7346V11.593H30.8367H30.8415Z" fill="#2D413D"/>
<path d="M48.5329 9.92169H40.467C41.4956 10.952 42.9213 11.5882 44.5 11.5882C46.0787 11.5882 47.5044 10.9472 48.5329 9.92169Z" fill="#A08E3C"/>
<path d="M50.1786 5.95716C50.1786 2.84251 47.6335 0.32135 44.5 0.32135C41.3664 0.32135 38.8213 2.84725 38.8213 5.95716C38.8213 6.33699 38.8596 6.70258 38.9313 7.06343H50.0686C50.1403 6.70733 50.1786 6.33699 50.1786 5.95716Z" fill="#A08E3C"/>
<path d="M8.94972 29.9343C13.3702 29.9343 15.8962 32.4791 15.8962 36.5054V36.5244C15.8962 40.5506 13.3702 43.0766 8.94972 43.0766H0.778564V29.9295H8.94972V29.9343ZM3.7064 40.3797H8.94972C11.6096 40.3797 12.9875 38.8984 12.9875 36.5244V36.5054C12.9875 34.1124 11.6096 32.6311 8.94972 32.6311H3.7064V40.3797Z" fill="#2D413D"/>
<path d="M27.6458 29.7633C32.0854 29.7633 34.707 32.4221 34.707 36.4864V36.5054C34.707 40.5886 32.0854 43.2475 27.6458 43.2475H24.6414C20.2209 43.2475 17.5801 40.5886 17.5801 36.5054V36.4864C17.5801 32.4221 20.2209 29.7633 24.6414 29.7633H27.6458ZM27.6458 40.5886C30.3248 40.5886 31.7983 38.9743 31.7983 36.5054V36.4864C31.7983 34.0364 30.3248 32.4222 27.6458 32.4222H24.6414C21.9815 32.4222 20.4888 34.0364 20.4888 36.4864V36.5054C20.4888 38.9743 21.9815 40.5886 24.6414 40.5886H27.6458Z" fill="#2D413D"/>
<path d="M49.0783 29.9343H51.9679V43.0813H49.2888L40.0078 34.3261V43.0813H37.1373V29.9343H39.8164L49.0783 38.6895V29.9343Z" fill="#2D413D"/>
<path d="M64.459 29.7633C68.8986 29.7633 71.5203 32.4221 71.5203 36.4864V36.5054C71.5203 40.5886 68.8986 43.2475 64.459 43.2475H61.4546C57.0342 43.2475 54.3934 40.5886 54.3934 36.5054V36.4864C54.3934 32.4221 57.0342 29.7633 61.4546 29.7633H64.459ZM64.459 40.5886C67.1381 40.5886 68.6116 38.9743 68.6116 36.5054V36.4864C68.6116 34.0364 67.1381 32.4222 64.459 32.4222H61.4546C58.7947 32.4222 57.3021 34.0364 57.3021 36.4864V36.5054C57.3021 38.9743 58.7947 40.5886 61.4546 40.5886H64.459Z" fill="#2D413D"/>
<path d="M84.9682 43.0813L82.2892 38.9221H76.8354V43.0813H73.9458V29.9343H82.3849C86.1356 29.9343 87.8961 31.7385 87.8961 34.4733V34.4923C87.8961 36.4294 86.9967 37.8728 85.0831 38.5185L88.2214 43.0766H84.9682V43.0813ZM76.8354 32.5219V36.4532H82.3849C84.088 36.4532 84.9874 35.8644 84.9874 34.497V34.478C84.9874 33.1296 84.088 32.5219 82.3849 32.5219H76.8354Z" fill="#2D413D"/>
<path d="M33.6785 48.1948V49.3058H29.7699V50.5498H33.2766V51.6513H29.7699V53.6075H28.5787V48.1948H33.6785Z" fill="#A08E3C"/>
<path d="M41.4047 48.1948H42.6198V51.0958C42.6198 52.881 41.5625 53.6787 39.9934 53.6787H39.0174C37.4483 53.6787 36.391 52.881 36.391 51.0958V48.1948H37.6061V51.0958C37.6061 52.1689 38.2281 52.5534 39.0174 52.5534H39.9934C40.7827 52.5534 41.4047 52.1689 41.4047 51.0958V48.1948Z" fill="#A08E3C"/>
<path d="M50.1978 49.7379C49.9155 49.3391 49.528 49.1682 48.9061 49.1682H47.6048C47.0116 49.1682 46.6672 49.3581 46.6672 49.6857C46.6672 49.9421 46.825 50.1225 47.423 50.227L49.5759 50.4406C50.7575 50.6305 51.1067 51.3427 51.0972 52.0929C51.0972 53.0567 50.3269 53.6882 49.0018 53.6882H47.667C46.4519 53.6882 45.6386 53.2751 45.2941 52.506L46.3179 51.865C46.6002 52.4585 47.0451 52.6532 47.6814 52.6532H49.0161C49.6237 52.6532 49.9299 52.4442 49.9299 52.0739C49.9299 51.7273 49.7002 51.5564 49.2123 51.4709L46.9398 51.205C45.8778 51.0246 45.4903 50.4216 45.4903 49.7284C45.4903 48.7361 46.2701 48.1331 47.6574 48.1331H48.9348C49.9347 48.1331 50.6475 48.4465 51.0254 49.002L50.1978 49.7474V49.7379Z" fill="#A08E3C"/>
<path d="M59.0722 48.1948V49.2726H55.1636V50.3741H58.6703V51.4377H55.1636V52.5249H59.0722V53.6027H53.9724V48.1901H59.0722V48.1948Z" fill="#A08E3C"/>
</svg>
